<svg width="58" height="42" viewBox="0 0 58 42" fill="none" xmlns="http://www.w3.org/2000/svg">
<path fill-rule="evenodd" clip-rule="evenodd" d="M45.2453 42C52.6038 42 58 37.7246 58 29.4251C58 20.1198 51.8679 16.8503 44.2642 16.8503C45.9811 10.5629 51.3773 6.79042 57.7547 4.27545L55.3019 0C43.283 4.52695 32 12.8263 32 26.6587C32 35.7126 36.4151 42 45.2453 42ZM13.2453 42C20.6038 42 26 37.7246 26 29.4251C26 20.1198 19.8679 16.8503 12.2642 16.8503C13.9811 10.5629 19.3773 6.79042 25.7547 4.27545L23.3019 0C11.283 4.52695 0 12.8263 0 26.6587C0 35.7126 4.41511 42 13.2453 42Z" fill="#F5B81D"/>
</svg>
