<svg width="119" height="17" xmlns="http://www.w3.org/2000/svg"><g id="fuelbankfoundation_home" stroke="none" stroke-width="1" fill="none" fill-rule="evenodd"><g id="fuelbankfoundation_partners" transform="translate(-889 -3823)" fill="#FFD300"><g id="Group-10" transform="translate(200 3693)"><g id="Group-3-Copy" transform="translate(689 129.624)"><path d="M78.58 12.117c-1.867.971-.137 3.11 1.919 2.568 2.054-.54 28.502-4.325 34.394-3.92 0 0 2.307.254 2.68-.554.372-.808 2.326-4.12-.894-5.216 0 0-17.796-6.464-59.793-3.746C14.891 3.967.966 12.561.594 13.149c-.373.588.343 3.552 2.48 3.43 0 0 39.055-14.736 90.304-10.545 0 0 .111.408-.9.622-1.012.214-7.121 1.936-13.899 5.46" id="Fill-1"/></g></g></g></g></svg>